<?xml version="1.0" standalone="no"?>
<!DOCTYPE svg PUBLIC "-//W3C//DTD SVG 20010904//EN"
 "http://www.w3.org/TR/2001/REC-SVG-20010904/DTD/svg10.dtd">
<svg version="1.0" xmlns="http://www.w3.org/2000/svg"
 width="950.000000pt" height="950.000000pt" viewBox="0 0 950.000000 950.000000"
 preserveAspectRatio="xMidYMid meet">
<metadata>
Created by potrace 1.14, written by Peter Selinger 2001-2017
</metadata>
<g transform="translate(0.000000,950.000000) scale(0.100000,-0.100000)"
fill="#000000" stroke="none">
<path d="M8580 8066 c-3 -2 -18 -6 -35 -9 -129 -21 -275 -123 -354 -249 -88
-139 -99 -352 -26 -497 l22 -44 -47 -106 c-49 -110 -88 -197 -120 -266 -10
-22 -89 -197 -175 -390 -87 -192 -168 -375 -182 -405 -14 -30 -64 -140 -110
-245 -88 -197 -114 -255 -153 -340 -13 -27 -34 -75 -47 -105 -14 -30 -34 -75
-45 -100 -12 -25 -144 -319 -295 -655 -151 -335 -283 -628 -293 -650 -10 -22
-89 -197 -175 -390 -86 -192 -167 -372 -180 -400 -12 -27 -32 -72 -45 -100
-12 -27 -33 -72 -45 -100 -13 -27 -73 -162 -135 -300 -62 -137 -123 -272 -135
-300 -13 -27 -32 -70 -43 -95 -48 -108 -103 -230 -117 -257 -8 -15 -15 -34
-15 -40 0 -31 -19 -5 -73 100 -32 61 -87 166 -123 232 -35 66 -76 143 -90 170
-14 28 -40 77 -58 110 -17 33 -58 110 -90 170 -33 61 -78 146 -101 190 -85
160 -489 922 -538 1015 -54 103 -108 205 -167 315 -21 39 -61 115 -90 170 -29
55 -69 132 -90 170 -40 75 -96 181 -180 340 -29 55 -65 123 -80 150 -100 185
-240 453 -240 459 0 18 -76 122 -118 162 -105 100 -296 144 -477 109 -65 -12
-177 -70 -222 -116 -60 -59 -78 -94 -198 -375 -58 -137 -112 -262 -120 -279
-7 -16 -61 -142 -120 -280 -58 -137 -114 -268 -124 -290 -10 -22 -51 -116 -90
-210 -40 -93 -86 -198 -102 -233 -16 -35 -29 -65 -29 -68 0 -2 -28 -69 -61
-147 -34 -78 -70 -162 -81 -187 -10 -25 -23 -54 -28 -65 -5 -11 -14 -33 -20
-49 -9 -25 -13 -27 -24 -15 -10 11 -367 579 -671 1068 -27 44 -139 224 -249
398 -109 175 -229 366 -265 425 l-66 107 -284 1 -283 0 14 -22 c66 -101 1350
-2253 1366 -2288 62 -139 194 -243 339 -266 188 -30 361 14 468 120 60 59 78
89 130 212 21 49 48 112 60 139 25 55 74 169 285 660 78 182 151 350 162 375
41 92 223 515 289 670 29 69 55 128 58 132 4 4 18 -14 31 -40 14 -26 64 -119
111 -207 47 -88 109 -205 139 -260 29 -55 71 -134 93 -175 22 -41 114 -214
204 -385 91 -170 183 -344 205 -385 23 -41 61 -113 86 -160 24 -47 61 -116 82
-155 21 -38 59 -110 85 -160 26 -49 64 -121 85 -160 80 -150 200 -375 250
-470 29 -55 67 -127 85 -160 18 -33 55 -103 83 -155 27 -52 62 -117 77 -145
15 -27 54 -102 88 -165 34 -63 83 -155 109 -205 27 -49 65 -124 84 -165 86
-182 166 -256 322 -299 134 -36 292 -22 411 39 71 36 119 80 162 150 35 55 40
66 77 150 11 25 30 68 42 95 12 28 79 176 147 330 69 154 135 303 148 330 12
28 37 84 55 125 18 41 47 107 65 146 19 40 48 105 65 145 18 41 46 103 62 139
16 36 55 121 85 190 30 69 69 154 85 190 16 36 37 83 46 105 8 22 18 45 22 50
4 6 29 60 55 120 26 61 60 137 75 170 16 33 67 148 115 255 48 107 97 218 110
245 12 28 37 84 55 125 18 41 48 108 66 148 19 41 34 75 34 77 0 2 18 43 40
90 22 47 40 88 40 90 0 2 20 46 45 99 25 53 45 99 45 101 0 2 13 32 29 67 16
35 60 131 96 213 37 83 75 168 85 190 10 22 45 101 78 175 33 74 71 160 85
190 13 30 34 75 45 100 37 85 270 605 295 660 14 30 35 80 48 110 13 30 32 73
44 95 20 39 21 40 89 47 137 13 245 65 342 164 170 171 201 431 78 642 -62
107 -205 211 -335 245 -52 13 -209 23 -219 13z m199 -332 c29 -15 59 -44 81
-75 31 -46 34 -57 34 -122 1 -79 -12 -111 -64 -165 -85 -89 -241 -91 -333 -4
-46 44 -70 99 -70 167 -3 176 193 286 352 199z"/>
</g>
</svg>
